<?xml version="1.0" encoding="us-ascii" standalone="no"?><svg xmlns="http://www.w3.org/2000/svg" xmlns:xlink="http://www.w3.org/1999/xlink" contentStyleType="text/css" height="452px" preserveAspectRatio="none" style="width:3403px;height:452px;background:#FFFFFF;" version="1.1" viewBox="0 0 3403 452" width="3403px" zoomAndPan="magnify"><defs><filter height="300%" id="f1dptpmb1at9yx" width="300%" x="-1" y="-1"><feGaussianBlur result="blurOut" stdDeviation="2.0"/><feColorMatrix in="blurOut" result="blurOut2" type="matrix" values="0 0 0 0 0 0 0 0 0 0 0 0 0 0 0 0 0 0 .4 0"/><feOffset dx="4.0" dy="4.0" in="blurOut2" result="blurOut3"/><feBlend in="SourceGraphic" in2="blurOut3" mode="normal"/></filter></defs><g><text fill="#000000" font-family="sans-serif" font-size="14" font-weight="bold" lengthAdjust="spacing" textLength="111" x="1639.25" y="23.5352">'Class Diagram'</text><!--class CurrentWeatherView--><g id="elem_CurrentWeatherView"><rect codeLine="10" fill="#FEFECE" filter="url(#f1dptpmb1at9yx)" height="64.4883" id="CurrentWeatherView" style="stroke:#A80036;stroke-width:1.0;" width="414" x="52" y="77.4683"/><ellipse cx="184.25" cy="93.4683" fill="#ADD1B2" rx="11" ry="11" style="stroke:#A80036;stroke-width:1.0;"/><path d="M186.7231,99.6113 Q186.1421,99.9102 185.5029,100.0596 Q184.8638,100.209 184.1582,100.209 Q181.6514,100.209 180.3315,98.5571 Q179.0117,96.9053 179.0117,93.7842 Q179.0117,90.6548 180.3315,89.0029 Q181.6514,87.3511 184.1582,87.3511 Q184.8638,87.3511 185.5112,87.5005 Q186.1587,87.6499 186.7231,87.9488 L186.7231,90.6714 Q186.0923,90.0904 185.4988,89.8206 Q184.9053,89.5508 184.2744,89.5508 Q182.9297,89.5508 182.2449,90.6175 Q181.5601,91.6841 181.5601,93.7842 Q181.5601,95.876 182.2449,96.9426 Q182.9297,98.0093 184.2744,98.0093 Q184.9053,98.0093 185.4988,97.7395 Q186.0923,97.4697 186.7231,96.8887 Z " fill="#000000"/><text fill="#000000" font-family="sans-serif" font-size="14" lengthAdjust="spacing" textLength="141" x="204.75" y="98.7593">CurrentWeatherView</text><line style="stroke:#A80036;stroke-width:1.0;" x1="53" x2="465" y1="109.4683" y2="109.4683"/><ellipse cx="63" cy="123.2124" fill="none" rx="3" ry="3" style="stroke:#038048;stroke-width:1.0;"/><text fill="#000000" font-family="sans-serif" font-size="14" lengthAdjust="spacing" textLength="388" x="72" y="127.0034">@ObservedObject viewModel: CurrentWeatherViewModel</text><line style="stroke:#A80036;stroke-width:1.0;" x1="53" x2="465" y1="133.9566" y2="133.9566"/></g><!--class WeatherDataDownloadState--><g id="elem_WeatherDataDownloadState"><rect codeLine="14" fill="#FEFECE" filter="url(#f1dptpmb1at9yx)" height="130.4414" id="WeatherDataDownloadState" style="stroke:#A80036;stroke-width:1.0;" width="222" x="501" y="44.4883"/><ellipse cx="516" cy="60.4883" fill="#EB937F" rx="11" ry="11" style="stroke:#A80036;stroke-width:1.0;"/><path d="M519.6143,66.9883 L511.8945,66.9883 L511.8945,54.5952 L519.6143,54.5952 L519.6143,56.7534 L514.3433,56.7534 L514.3433,59.4263 L519.1162,59.4263 L519.1162,61.5845 L514.3433,61.5845 L514.3433,64.8301 L519.6143,64.8301 Z " fill="#000000"/><text fill="#000000" font-family="sans-serif" font-size="14" lengthAdjust="spacing" textLength="190" x="530" y="65.7793">WeatherDataDownloadState</text><line style="stroke:#A80036;stroke-width:1.0;" x1="502" x2="722" y1="76.4883" y2="76.4883"/><text fill="#000000" font-family="sans-serif" font-size="14" lengthAdjust="spacing" textLength="72" x="507" y="94.0234">notStarted</text><text fill="#000000" font-family="sans-serif" font-size="14" lengthAdjust="spacing" textLength="73" x="507" y="110.5117">inProgress</text><text fill="#000000" font-family="sans-serif" font-size="14" lengthAdjust="spacing" textLength="55" x="507" y="127">finished</text><text fill="#000000" font-family="sans-serif" font-size="14" lengthAdjust="spacing" textLength="111" x="507" y="143.4883">permissionError</text><line style="stroke:#A80036;stroke-width:1.0;" x1="502" x2="722" y1="150.4414" y2="150.4414"/><text fill="#000000" font-family="sans-serif" font-size="14" lengthAdjust="spacing" textLength="154" x="507" y="167.9766">error(message: String)</text></g><!--class CurrentWeatherViewModel--><g id="elem_CurrentWeatherViewModel"><rect codeLine="22" fill="#FEFECE" filter="url(#f1dptpmb1at9yx)" height="203.9063" id="CurrentWeatherViewModel" style="stroke:#A80036;stroke-width:1.0;" width="504" x="7" y="234.9283"/><ellipse cx="163.25" cy="250.9283" fill="#ADD1B2" rx="11" ry="11" style="stroke:#A80036;stroke-width:1.0;"/><path d="M165.7231,257.0713 Q165.1421,257.3702 164.5029,257.5196 Q163.8638,257.669 163.1582,257.669 Q160.6514,257.669 159.3315,256.0171 Q158.0117,254.3653 158.0117,251.2442 Q158.0117,248.1148 159.3315,246.4629 Q160.6514,244.8111 163.1582,244.8111 Q163.8638,244.8111 164.5112,244.9605 Q165.1587,245.1099 165.7231,245.4088 L165.7231,248.1314 Q165.0923,247.5504 164.4988,247.2806 Q163.9053,247.0108 163.2744,247.0108 Q161.9297,247.0108 161.2449,248.0775 Q160.5601,249.1441 160.5601,251.2442 Q160.5601,253.336 161.2449,254.4026 Q161.9297,255.4693 163.2744,255.4693 Q163.9053,255.4693 164.4988,255.1995 Q165.0923,254.9297 165.7231,254.3487 Z " fill="#000000"/><text fill="#000000" font-family="sans-serif" font-size="14" lengthAdjust="spacing" textLength="183" x="183.75" y="256.2193">CurrentWeatherViewModel</text><line style="stroke:#A80036;stroke-width:1.0;" x1="8" x2="510" y1="266.9283" y2="266.9283"/><ellipse cx="18" cy="280.6724" fill="#84BE84" rx="3" ry="3" style="stroke:#038048;stroke-width:1.0;"/><text fill="#000000" font-family="sans-serif" font-size="14" lengthAdjust="spacing" textLength="317" x="27" y="284.4634">init(CurrentWeatherProtocol,LocationProtocol)</text><line style="stroke:#A80036;stroke-width:1.0;" x1="8" x2="510" y1="291.4166" y2="291.4166"/><line style="stroke:#A80036;stroke-width:1.0;" x1="8" x2="510" y1="293.4166" y2="293.4166"/><ellipse cx="18" cy="305.1607" fill="none" rx="3" ry="3" style="stroke:#038048;stroke-width:1.0;"/><text fill="#000000" font-family="sans-serif" font-size="14" lengthAdjust="spacing" textLength="354" x="27" y="308.9517">@Published currentWeather: CurrentWeatherModel?</text><ellipse cx="18" cy="321.649" fill="none" rx="3" ry="3" style="stroke:#038048;stroke-width:1.0;"/><text fill="#000000" font-family="sans-serif" font-size="14" lengthAdjust="spacing" textLength="478" x="27" y="325.44">@Published downloadState: WeatherDataDownloadState = .notStarted</text><line style="stroke:#A80036;stroke-width:1.0;" x1="8" x2="510" y1="332.3931" y2="332.3931"/><line style="stroke:#A80036;stroke-width:1.0;" x1="8" x2="510" y1="334.3931" y2="334.3931"/><rect fill="none" height="6" style="stroke:#C82930;stroke-width:1.0;" width="6" x="15" y="343.1373"/><text fill="#000000" font-family="sans-serif" font-size="14" lengthAdjust="spacing" textLength="280" x="27" y="349.9283">currentLocationCancellable: Cancellable?</text><rect fill="none" height="6" style="stroke:#C82930;stroke-width:1.0;" width="6" x="15" y="359.6255"/><text fill="#000000" font-family="sans-serif" font-size="14" lengthAdjust="spacing" textLength="238" x="27" y="366.4166">locationManager: LocationProtocol</text><rect fill="none" height="6" style="stroke:#C82930;stroke-width:1.0;" width="6" x="15" y="376.1138"/><text fill="#000000" font-family="sans-serif" font-size="14" lengthAdjust="spacing" textLength="206" x="27" y="382.9048">repo: CurrentWeatherProtocol</text><line style="stroke:#A80036;stroke-width:1.0;" x1="8" x2="510" y1="389.858" y2="389.858"/><line style="stroke:#A80036;stroke-width:1.0;" x1="8" x2="510" y1="391.858" y2="391.858"/><ellipse cx="18" cy="403.6021" fill="#84BE84" rx="3" ry="3" style="stroke:#038048;stroke-width:1.0;"/><text fill="#000000" font-family="sans-serif" font-size="14" lengthAdjust="spacing" textLength="119" x="27" y="407.3931">getWeatherData()</text><line style="stroke:#A80036;stroke-width:1.0;" x1="8" x2="510" y1="414.3463" y2="414.3463"/><line style="stroke:#A80036;stroke-width:1.0;" x1="8" x2="510" y1="416.3463" y2="416.3463"/><rect fill="#F24D5C" height="6" style="stroke:#C82930;stroke-width:1.0;" width="6" x="15" y="425.0904"/><text fill="#000000" font-family="sans-serif" font-size="14" lengthAdjust="spacing" textLength="335" x="27" y="431.8814">fetchCurrentWeather(coordinate: LocationModel)</text></g><!--class BaseRepo--><g id="elem_BaseRepo"><rect codeLine="40" fill="#FEFECE" filter="url(#f1dptpmb1at9yx)" height="80.9766" id="BaseRepo" style="stroke:#A80036;stroke-width:1.0;" width="308" x="758" y="69.2183"/><ellipse cx="874.75" cy="85.2183" fill="#B4A7E5" rx="11" ry="11" style="stroke:#A80036;stroke-width:1.0;"/><path d="M871.1777,81.4834 L871.1777,79.3252 L878.5571,79.3252 L878.5571,81.4834 L876.0918,81.4834 L876.0918,89.5601 L878.5571,89.5601 L878.5571,91.7183 L871.1777,91.7183 L871.1777,89.5601 L873.6431,89.5601 L873.6431,81.4834 Z " fill="#000000"/><text fill="#000000" font-family="sans-serif" font-size="14" font-style="italic" lengthAdjust="spacing" textLength="66" x="895.25" y="90.5093">BaseRepo</text><line style="stroke:#A80036;stroke-width:1.0;" x1="759" x2="1065" y1="101.2183" y2="101.2183"/><ellipse cx="769" cy="114.9624" fill="none" rx="3" ry="3" style="stroke:#038048;stroke-width:1.0;"/><text fill="#000000" font-family="sans-serif" font-size="14" lengthAdjust="spacing" textLength="193" x="778" y="118.7534">urlBuilder: URLBuilder { get }</text><ellipse cx="769" cy="131.4507" fill="none" rx="3" ry="3" style="stroke:#038048;stroke-width:1.0;"/><text fill="#000000" font-family="sans-serif" font-size="14" lengthAdjust="spacing" textLength="282" x="778" y="135.2417">networkInterface: NetworkProtocol { get }</text><line style="stroke:#A80036;stroke-width:1.0;" x1="759" x2="1065" y1="142.1948" y2="142.1948"/></g><!--class CurrentWeatherProtocol--><g id="elem_CurrentWeatherProtocol"><rect codeLine="45" fill="#FEFECE" filter="url(#f1dptpmb1at9yx)" height="64.4883" id="CurrentWeatherProtocol" style="stroke:#A80036;stroke-width:1.0;" width="741" x="1101.5" y="77.4683"/><ellipse cx="1384.75" cy="93.4683" fill="#B4A7E5" rx="11" ry="11" style="stroke:#A80036;stroke-width:1.0;"/><path d="M1381.1777,89.7334 L1381.1777,87.5752 L1388.5571,87.5752 L1388.5571,89.7334 L1386.0918,89.7334 L1386.0918,97.8101 L1388.5571,97.8101 L1388.5571,99.9683 L1381.1777,99.9683 L1381.1777,97.8101 L1383.6431,97.8101 L1383.6431,89.7334 Z " fill="#000000"/><text fill="#000000" font-family="sans-serif" font-size="14" font-style="italic" lengthAdjust="spacing" textLength="166" x="1405.25" y="98.7593">CurrentWeatherProtocol</text><line style="stroke:#A80036;stroke-width:1.0;" x1="1102.5" x2="1841.5" y1="109.4683" y2="109.4683"/><line style="stroke:#A80036;stroke-width:1.0;" x1="1102.5" x2="1841.5" y1="117.4683" y2="117.4683"/><ellipse cx="1112.5" cy="131.2124" fill="#84BE84" rx="3" ry="3" style="stroke:#038048;stroke-width:1.0;"/><text fill="#000000" font-family="sans-serif" font-size="14" lengthAdjust="spacing" textLength="715" x="1121.5" y="135.0034">getCurrentWeather(coord: LocationModel) async throws -&gt; Result&lt;CurrentWeatherModel, ServiceError&gt;</text></g><!--class WeatherForecastProtocol--><g id="elem_WeatherForecastProtocol"><rect codeLine="49" fill="#FEFECE" filter="url(#f1dptpmb1at9yx)" height="64.4883" id="WeatherForecastProtocol" style="stroke:#A80036;stroke-width:1.0;" width="751" x="1877.5" y="77.4683"/><ellipse cx="2163.25" cy="93.4683" fill="#B4A7E5" rx="11" ry="11" style="stroke:#A80036;stroke-width:1.0;"/><path d="M2159.6777,89.7334 L2159.6777,87.5752 L2167.0571,87.5752 L2167.0571,89.7334 L2164.5918,89.7334 L2164.5918,97.8101 L2167.0571,97.8101 L2167.0571,99.9683 L2159.6777,99.9683 L2159.6777,97.8101 L2162.1431,97.8101 L2162.1431,89.7334 Z " fill="#000000"/><text fill="#000000" font-family="sans-serif" font-size="14" font-style="italic" lengthAdjust="spacing" textLength="171" x="2183.75" y="98.7593">WeatherForecastProtocol</text><line style="stroke:#A80036;stroke-width:1.0;" x1="1878.5" x2="2627.5" y1="109.4683" y2="109.4683"/><line style="stroke:#A80036;stroke-width:1.0;" x1="1878.5" x2="2627.5" y1="117.4683" y2="117.4683"/><ellipse cx="1888.5" cy="131.2124" fill="#84BE84" rx="3" ry="3" style="stroke:#038048;stroke-width:1.0;"/><text fill="#000000" font-family="sans-serif" font-size="14" lengthAdjust="spacing" textLength="725" x="1897.5" y="135.0034">getWeatherForecast(coord: LocationModel) async throws -&gt; Result&lt;WeatherForecastModel, ServiceError&gt;</text></g><!--class WeatherDataRepo--><g id="elem_WeatherDataRepo"><rect codeLine="54" fill="#FEFECE" filter="url(#f1dptpmb1at9yx)" height="64.4883" id="WeatherDataRepo" style="stroke:#A80036;stroke-width:1.0;" width="445" x="1249.5" y="304.6383"/><ellipse cx="1406.75" cy="320.6383" fill="#ADD1B2" rx="11" ry="11" style="stroke:#A80036;stroke-width:1.0;"/><path d="M1409.2231,326.7813 Q1408.6421,327.0802 1408.0029,327.2296 Q1407.3638,327.379 1406.6582,327.379 Q1404.1514,327.379 1402.8315,325.7271 Q1401.5117,324.0753 1401.5117,320.9542 Q1401.5117,317.8248 1402.8315,316.1729 Q1404.1514,314.5211 1406.6582,314.5211 Q1407.3638,314.5211 1408.0112,314.6705 Q1408.6587,314.8199 1409.2231,315.1188 L1409.2231,317.8414 Q1408.5923,317.2604 1407.9988,316.9906 Q1407.4053,316.7208 1406.7744,316.7208 Q1405.4297,316.7208 1404.7449,317.7875 Q1404.0601,318.8541 1404.0601,320.9542 Q1404.0601,323.046 1404.7449,324.1126 Q1405.4297,325.1793 1406.7744,325.1793 Q1407.4053,325.1793 1407.9988,324.9095 Q1408.5923,324.6397 1409.2231,324.0587 Z " fill="#000000"/><text fill="#000000" font-family="sans-serif" font-size="14" lengthAdjust="spacing" textLength="122" x="1427.25" y="325.9293">WeatherDataRepo</text><line style="stroke:#A80036;stroke-width:1.0;" x1="1250.5" x2="1693.5" y1="336.6383" y2="336.6383"/><line style="stroke:#A80036;stroke-width:1.0;" x1="1250.5" x2="1693.5" y1="344.6383" y2="344.6383"/><polygon fill="#FFFF44" points="1260.5,353.3824,1264.5,357.3824,1260.5,361.3824,1256.5,357.3824" style="stroke:#B38D22;stroke-width:1.0;"/><text fill="#000000" font-family="sans-serif" font-size="14" lengthAdjust="spacing" textLength="419" x="1269.5" y="362.1734">buildUrl(coord: LocationModel, secondaryUrl: String) -&gt; URL?</text></g><!--class WeatherDataRepoFactory--><g id="elem_WeatherDataRepoFactory"><rect codeLine="58" fill="#FEFECE" filter="url(#f1dptpmb1at9yx)" height="64.4883" id="WeatherDataRepoFactory" style="stroke:#A80036;stroke-width:1.0;" width="329" x="545.5" y="304.6383"/><ellipse cx="619.75" cy="320.6383" fill="#ADD1B2" rx="11" ry="11" style="stroke:#A80036;stroke-width:1.0;"/><path d="M622.2231,326.7813 Q621.6421,327.0802 621.0029,327.2296 Q620.3638,327.379 619.6582,327.379 Q617.1514,327.379 615.8315,325.7271 Q614.5117,324.0753 614.5117,320.9542 Q614.5117,317.8248 615.8315,316.1729 Q617.1514,314.5211 619.6582,314.5211 Q620.3638,314.5211 621.0112,314.6705 Q621.6587,314.8199 622.2231,315.1188 L622.2231,317.8414 Q621.5923,317.2604 620.9988,316.9906 Q620.4053,316.7208 619.7744,316.7208 Q618.4297,316.7208 617.7449,317.7875 Q617.0601,318.8541 617.0601,320.9542 Q617.0601,323.046 617.7449,324.1126 Q618.4297,325.1793 619.7744,325.1793 Q620.4053,325.1793 620.9988,324.9095 Q621.5923,324.6397 622.2231,324.0587 Z " fill="#000000"/><text fill="#000000" font-family="sans-serif" font-size="14" lengthAdjust="spacing" textLength="172" x="640.25" y="325.9293">WeatherDataRepoFactory</text><line style="stroke:#A80036;stroke-width:1.0;" x1="546.5" x2="873.5" y1="336.6383" y2="336.6383"/><line style="stroke:#A80036;stroke-width:1.0;" x1="546.5" x2="873.5" y1="344.6383" y2="344.6383"/><ellipse cx="556.5" cy="358.3824" fill="#84BE84" rx="3" ry="3" style="stroke:#038048;stroke-width:1.0;"/><text fill="#000000" font-family="sans-serif" font-size="14" lengthAdjust="spacing" text-decoration="underline" textLength="303" x="565.5" y="362.1734">getWeatherDataRepo() -&gt; WeatherDataRepo</text></g><!--class LocationProtocol--><g id="elem_LocationProtocol"><rect codeLine="69" fill="#FEFECE" filter="url(#f1dptpmb1at9yx)" height="64.4883" id="LocationProtocol" style="stroke:#A80036;stroke-width:1.0;" width="450" x="2664" y="77.4683"/><ellipse cx="2827.25" cy="93.4683" fill="#B4A7E5" rx="11" ry="11" style="stroke:#A80036;stroke-width:1.0;"/><path d="M2823.6777,89.7334 L2823.6777,87.5752 L2831.0571,87.5752 L2831.0571,89.7334 L2828.5918,89.7334 L2828.5918,97.8101 L2831.0571,97.8101 L2831.0571,99.9683 L2823.6777,99.9683 L2823.6777,97.8101 L2826.1431,97.8101 L2826.1431,89.7334 Z " fill="#000000"/><text fill="#000000" font-family="sans-serif" font-size="14" font-style="italic" lengthAdjust="spacing" textLength="115" x="2847.75" y="98.7593">LocationProtocol</text><line style="stroke:#A80036;stroke-width:1.0;" x1="2665" x2="3113" y1="109.4683" y2="109.4683"/><line style="stroke:#A80036;stroke-width:1.0;" x1="2665" x2="3113" y1="117.4683" y2="117.4683"/><text fill="#000000" font-family="sans-serif" font-size="14" lengthAdjust="spacing" textLength="438" x="2670" y="135.0034">getCurrentLocation() -&gt; Future&lt;LocationModel, LocationError&gt;</text></g><!--class LocationManager--><g id="elem_LocationManager"><rect codeLine="73" fill="#FEFECE" filter="url(#f1dptpmb1at9yx)" height="113.9531" id="LocationManager" style="stroke:#A80036;stroke-width:1.0;" width="609" x="2584.5" y="279.9083"/><ellipse cx="2825.75" cy="295.9083" fill="#ADD1B2" rx="11" ry="11" style="stroke:#A80036;stroke-width:1.0;"/><path d="M2828.2231,302.0513 Q2827.6421,302.3502 2827.0029,302.4996 Q2826.3638,302.649 2825.6582,302.649 Q2823.1514,302.649 2821.8315,300.9971 Q2820.5117,299.3453 2820.5117,296.2242 Q2820.5117,293.0948 2821.8315,291.4429 Q2823.1514,289.7911 2825.6582,289.7911 Q2826.3638,289.7911 2827.0112,289.9405 Q2827.6587,290.0899 2828.2231,290.3888 L2828.2231,293.1114 Q2827.5923,292.5304 2826.9988,292.2606 Q2826.4053,291.9908 2825.7744,291.9908 Q2824.4297,291.9908 2823.7449,293.0575 Q2823.0601,294.1241 2823.0601,296.2242 Q2823.0601,298.316 2823.7449,299.3826 Q2824.4297,300.4493 2825.7744,300.4493 Q2826.4053,300.4493 2826.9988,300.1795 Q2827.5923,299.9097 2828.2231,299.3287 Z " fill="#000000"/><text fill="#000000" font-family="sans-serif" font-size="14" lengthAdjust="spacing" textLength="118" x="2846.25" y="301.1993">LocationManager</text><line style="stroke:#A80036;stroke-width:1.0;" x1="2585.5" x2="3192.5" y1="311.9083" y2="311.9083"/><rect fill="none" height="6" style="stroke:#C82930;stroke-width:1.0;" width="6" x="2592.5" y="322.6524"/><text fill="#000000" font-family="sans-serif" font-size="14" lengthAdjust="spacing" textLength="258" x="2604.5" y="329.4434">locationManager: CLLocationManager</text><rect fill="#F24D5C" height="6" style="stroke:#C82930;stroke-width:1.0;" width="6" x="2592.5" y="339.1407"/><text fill="#000000" font-family="sans-serif" font-size="14" lengthAdjust="spacing" textLength="311" x="2604.5" y="345.9317">locationCallback: ((LocationModel?) -&gt; Void)?</text><line style="stroke:#A80036;stroke-width:1.0;" x1="2585.5" x2="3192.5" y1="352.8848" y2="352.8848"/><line style="stroke:#A80036;stroke-width:1.0;" x1="2585.5" x2="3192.5" y1="354.8848" y2="354.8848"/><rect fill="#F24D5C" height="6" style="stroke:#C82930;stroke-width:1.0;" width="6" x="2592.5" y="363.629"/><text fill="#000000" font-family="sans-serif" font-size="14" lengthAdjust="spacing" textLength="583" x="2604.5" y="370.42">fetchAddressFromCoordinates(LocationModel, @escaping ((LocationModel) -&gt; Void))</text><rect fill="#F24D5C" height="6" style="stroke:#C82930;stroke-width:1.0;" width="6" x="2592.5" y="380.1173"/><text fill="#000000" font-family="sans-serif" font-size="14" lengthAdjust="spacing" textLength="242" x="2604.5" y="386.9083">checkAuthorisationStatus() -&gt; Bool</text></g><!--class URLBuilder--><g id="elem_URLBuilder"><rect codeLine="86" fill="#FEFECE" filter="url(#f1dptpmb1at9yx)" height="93.4648" id="URLBuilder" style="stroke:#A80036;stroke-width:1.0;" width="177" x="3212.5" y="62.9783"/><ellipse cx="3259.75" cy="78.9783" fill="#B4A7E5" rx="11" ry="11" style="stroke:#A80036;stroke-width:1.0;"/><path d="M3256.1777,75.2434 L3256.1777,73.0852 L3263.5571,73.0852 L3263.5571,75.2434 L3261.0918,75.2434 L3261.0918,83.3201 L3263.5571,83.3201 L3263.5571,85.4783 L3256.1777,85.4783 L3256.1777,83.3201 L3258.6431,83.3201 L3258.6431,75.2434 Z " fill="#000000"/><text fill="#000000" font-family="sans-serif" font-size="14" font-style="italic" lengthAdjust="spacing" textLength="74" x="3280.25" y="84.2693">URLBuilder</text><line style="stroke:#A80036;stroke-width:1.0;" x1="3213.5" x2="3388.5" y1="94.9783" y2="94.9783"/><ellipse cx="3223.5" cy="108.7224" fill="#84BE84" rx="3" ry="3" style="stroke:#038048;stroke-width:1.0;"/><text fill="#000000" font-family="sans-serif" font-size="14" lengthAdjust="spacing" textLength="151" x="3232.5" y="112.5134">getBaseUrl() -&gt; String</text><ellipse cx="3223.5" cy="145.699" fill="#84BE84" rx="3" ry="3" style="stroke:#038048;stroke-width:1.0;"/><text fill="#000000" font-family="sans-serif" font-size="14" lengthAdjust="spacing" textLength="141" x="3232.5" y="149.49">getAppId() -&gt; String</text><line style="stroke:#A80036;stroke-width:1.0;" x1="3213.5" x2="3267" y1="127.7107" y2="127.7107"/><text fill="#000000" font-family="sans-serif" font-size="14" lengthAdjust="spacing" textLength="68" x="3267" y="132.5017">encrypted</text><line style="stroke:#A80036;stroke-width:1.0;" x1="3335" x2="3388.5" y1="127.7107" y2="127.7107"/></g><!--class URLEnvironment--><g id="elem_URLEnvironment"><rect codeLine="92" fill="#FEFECE" filter="url(#f1dptpmb1at9yx)" height="97.4648" id="URLEnvironment" style="stroke:#A80036;stroke-width:1.0;" width="145" x="3228.5" y="288.1483"/><ellipse cx="3243.5" cy="304.1483" fill="#EB937F" rx="11" ry="11" style="stroke:#A80036;stroke-width:1.0;"/><path d="M3247.1143,310.6483 L3239.3945,310.6483 L3239.3945,298.2552 L3247.1143,298.2552 L3247.1143,300.4134 L3241.8433,300.4134 L3241.8433,303.0863 L3246.6162,303.0863 L3246.6162,305.2445 L3241.8433,305.2445 L3241.8433,308.4901 L3247.1143,308.4901 Z " fill="#000000"/><text fill="#000000" font-family="sans-serif" font-size="14" lengthAdjust="spacing" textLength="113" x="3257.5" y="309.4393">URLEnvironment</text><line style="stroke:#A80036;stroke-width:1.0;" x1="3229.5" x2="3372.5" y1="320.1483" y2="320.1483"/><text fill="#000000" font-family="sans-serif" font-size="14" lengthAdjust="spacing" textLength="33" x="3234.5" y="337.6834">prod</text><text fill="#000000" font-family="sans-serif" font-size="14" lengthAdjust="spacing" textLength="17" x="3234.5" y="354.1717">qa</text><text fill="#000000" font-family="sans-serif" font-size="14" lengthAdjust="spacing" textLength="24" x="3234.5" y="370.66">dev</text><line style="stroke:#A80036;stroke-width:1.0;" x1="3229.5" x2="3372.5" y1="377.6131" y2="377.6131"/></g><!--reverse link WeatherForecastProtocol to WeatherDataRepo--><g id="link_WeatherForecastProtocol_WeatherDataRepo"><path codeLine="62" d="M2125.8745,147.3647 C1977.1445,190.2447 1730.53,261.3483 1581.81,304.2283 " fill="none" id="WeatherForecastProtocol-backto-WeatherDataRepo" style="stroke:#A80036;stroke-width:1.0;stroke-dasharray:7.0,7.0;"/><polygon fill="none" points="2143.17,142.3783,2124.2123,141.5995,2127.5366,153.1299,2143.17,142.3783" style="stroke:#A80036;stroke-width:1.0;"/></g><!--reverse link CurrentWeatherProtocol to WeatherDataRepo--><g id="link_CurrentWeatherProtocol_WeatherDataRepo"><path codeLine="63" d="M1472,160.0183 C1472,202.9183 1472,261.5283 1472,304.4783 " fill="none" id="CurrentWeatherProtocol-backto-WeatherDataRepo" style="stroke:#A80036;stroke-width:1.0;stroke-dasharray:7.0,7.0;"/><polygon fill="none" points="1472,142.0183,1466,160.0183,1478,160.0183,1472,142.0183" style="stroke:#A80036;stroke-width:1.0;"/></g><!--reverse link BaseRepo to WeatherDataRepo--><g id="link_BaseRepo_WeatherDataRepo"><path codeLine="64" d="M1027.8506,157.2932 C1136.8606,201.1232 1293.09,263.9483 1393.23,304.2083 " fill="none" id="BaseRepo-backto-WeatherDataRepo" style="stroke:#A80036;stroke-width:1.0;stroke-dasharray:7.0,7.0;"/><polygon fill="none" points="1011.15,150.5783,1025.6123,162.86,1030.0889,151.7263,1011.15,150.5783" style="stroke:#A80036;stroke-width:1.0;"/></g><!--reverse link LocationProtocol to LocationManager--><g id="link_LocationProtocol_LocationManager"><path codeLine="81" d="M2889,160.0183 C2889,195.5483 2889,236.1983 2889,279.6983 " fill="none" id="LocationProtocol-backto-LocationManager" style="stroke:#A80036;stroke-width:1.0;stroke-dasharray:7.0,7.0;"/><polygon fill="none" points="2889,142.0183,2883,160.0183,2895,160.0183,2889,142.0183" style="stroke:#A80036;stroke-width:1.0;"/></g><!--reverse link URLBuilder to URLEnvironment--><g id="link_URLBuilder_URLEnvironment"><path codeLine="98" d="M3301,174.8183 C3301,213.0383 3301,249.1683 3301,287.8983 " fill="none" id="URLBuilder-backto-URLEnvironment" style="stroke:#A80036;stroke-width:1.0;"/><polygon fill="none" points="3301,156.8183,3295,174.8183,3307,174.8183,3301,156.8183" style="stroke:#A80036;stroke-width:1.0;"/></g><!--SRC=[bLLDJ-Cm4BtdLrZQ0wbe-G5LIoc5IaXbGI3Oi-iCYRUk7SPEgmhwtzTsysdIm-QIs7upysRUZ6Eu4K0k5e9gJUuuJP5kBoAzuPAWqk2_ScetYORF0YI3Hz2QfZ0NFBKOdcOciW_p3XO58aZp1wZ90DyvxCbNH2x9pTDQ0-uWULh_1MR8pfuygWJ4kCV47qJ7A09PR4bvS4SDlLDxAHHDNWqru1pRHofZbsWWyKikdr6bQ2dwvGUNN6VbMGwuvLfp9UyH5VezS5_nzfJIcBmQv38TkE3d4lBiok2NDXutSHTa2HZ5b1Yk5AF6Hgis1j5qEYtjRfwBjV3K2EjOXmNnuMO_hP9sBSRdgpGbLwqILGH6LTIAuu9QPOMWQs6TjHQp4YvAt2ELjb2MPPXSYKF8LPX23MdIJy6q6CU35h4FC2phEeYPKfXmwJEj0ll2UANimwK1_A0Co2tLy699r0eLA6uBBX97-krbLNwJByU174kG1BDNk7cet8p9xzDEnRt67zl1-lEiGrkBlaJ270ZL1yc8oL3jDHbTanVGXJ2JdaOOabSxHfo1x-3hBfiIk5G8Z6hJHoU0_1-VmFWSeN9oMlgszFX5raw0DnIziOVsbc5A9XGF5bBFeoDXjPirSnbuNr9c51xgLB-qRNxEZa6ZEMZilGMRpl6vyas-hwv-uCyetukjMxBtjDk-uLYL6JMTL05EQImBKo1CWXfMoqQJKz5MtI4kVVSCzs8LG0FWWWgnfcmp9d7SYJtphDuLJmQpSARdIUBkvIMgxQAUPnq7t6z0CvfRqKFNZUT1TOLbm3RpmcGAkVP0T-KL-bIQMwNyJ-H7HRqAONvT5ThtH3CyJaVNkDxzgJEZqOZOVo8USdkxaj6e0S_p_27fGAiVcdL-BtSSbTnQFSi0EQhJJ-gJ-bS2EsVG8ZBvjh6wjb7q3m00]--></g></svg>