<?xml version="1.0" encoding="us-ascii" standalone="no"?><svg xmlns="http://www.w3.org/2000/svg" xmlns:xlink="http://www.w3.org/1999/xlink" contentStyleType="text/css" height="555px" preserveAspectRatio="none" style="width:837px;height:555px;background:#FFFFFF;" version="1.1" viewBox="0 0 837 555" width="837px" zoomAndPan="magnify"><defs><filter height="300%" id="f6wu6d3hgoe99" width="300%" x="-1" y="-1"><feGaussianBlur result="blurOut" stdDeviation="2.0"/><feColorMatrix in="blurOut" result="blurOut2" type="matrix" values="0 0 0 0 0 0 0 0 0 0 0 0 0 0 0 0 0 0 .4 0"/><feOffset dx="4.0" dy="4.0" in="blurOut2" result="blurOut3"/><feBlend in="SourceGraphic" in2="blurOut3" mode="normal"/></filter></defs><g><text fill="#000000" font-family="sans-serif" font-size="14" font-weight="bold" lengthAdjust="spacing" textLength="137" x="348.5" y="33.5352">'High Level Design'</text><ellipse cx="415.5" cy="57.4883" fill="#000000" filter="url(#f6wu6d3hgoe99)" rx="10" ry="10" style="stroke:#000000;stroke-width:1.0;"/><rect fill="#FEFECE" filter="url(#f6wu6d3hgoe99)" height="34.1328" rx="12.5" ry="12.5" style="stroke:#A80036;stroke-width:1.5;" width="107" x="362" y="87.4883"/><text fill="#000000" font-family="sans-serif" font-size="12" lengthAdjust="spacing" textLength="83" x="376" y="109.0898">App Launched</text><rect fill="#FEFECE" filter="url(#f6wu6d3hgoe99)" height="34.1328" rx="12.5" ry="12.5" style="stroke:#A80036;stroke-width:1.5;" width="209" x="311" y="141.6211"/><text fill="#000000" font-family="sans-serif" font-size="12" lengthAdjust="spacing" textLength="185" x="325" y="163.2227">Get Current Weather Button Tap</text><rect fill="#FEFECE" filter="url(#f6wu6d3hgoe99)" height="34.1328" rx="12.5" ry="12.5" style="stroke:#A80036;stroke-width:1.5;" width="142" x="344.5" y="195.7539"/><text fill="#000000" font-family="sans-serif" font-size="12" lengthAdjust="spacing" textLength="118" x="358.5" y="217.3555">Get Current Location</text><polygon fill="#FEFECE" filter="url(#f6wu6d3hgoe99)" points="344.5,249.8867,486.5,249.8867,498.5,261.8867,486.5,273.8867,344.5,273.8867,332.5,261.8867,344.5,249.8867" style="stroke:#A80036;stroke-width:1.5;"/><text fill="#000000" font-family="sans-serif" font-size="11" lengthAdjust="spacing" textLength="142" x="344.5" y="266.0439">check Location Permission</text><rect fill="#FEFECE" filter="url(#f6wu6d3hgoe99)" height="34.1328" rx="12.5" ry="12.5" style="stroke:#A80036;stroke-width:1.5;" width="232" x="26.5" y="309.7969"/><text fill="#000000" font-family="sans-serif" font-size="12" lengthAdjust="spacing" textLength="208" x="40.5" y="331.3984">Show user prompt and goto settings</text><rect fill="#FEFECE" filter="url(#f6wu6d3hgoe99)" height="34.1328" rx="12.5" ry="12.5" style="stroke:#A80036;stroke-width:1.5;" width="217" x="34" y="363.9297"/><text fill="#000000" font-family="sans-serif" font-size="12" lengthAdjust="spacing" textLength="193" x="48" y="385.5313">Fetch Current Weather from Repo</text><rect fill="#FEFECE" filter="url(#f6wu6d3hgoe99)" height="34.1328" rx="12.5" ry="12.5" style="stroke:#A80036;stroke-width:1.5;" width="263" x="11" y="418.0625"/><text fill="#000000" font-family="sans-serif" font-size="12" lengthAdjust="spacing" textLength="239" x="25" y="439.6641">onResponse Update ViewModel and View</text><rect fill="#FEFECE" filter="url(#f6wu6d3hgoe99)" height="34.1328" rx="12.5" ry="12.5" style="stroke:#A80036;stroke-width:1.5;" width="215" x="308" y="309.7969"/><text fill="#000000" font-family="sans-serif" font-size="12" lengthAdjust="spacing" textLength="191" x="322" y="331.3984">Ask first time location permission</text><rect fill="#FEFECE" filter="url(#f6wu6d3hgoe99)" height="34.1328" rx="12.5" ry="12.5" style="stroke:#A80036;stroke-width:1.5;" width="217" x="307" y="363.9297"/><text fill="#000000" font-family="sans-serif" font-size="12" lengthAdjust="spacing" textLength="193" x="321" y="385.5313">Fetch Current Weather from Repo</text><rect fill="#FEFECE" filter="url(#f6wu6d3hgoe99)" height="34.1328" rx="12.5" ry="12.5" style="stroke:#A80036;stroke-width:1.5;" width="263" x="284" y="418.0625"/><text fill="#000000" font-family="sans-serif" font-size="12" lengthAdjust="spacing" textLength="239" x="298" y="439.6641">onResponse Update ViewModel and View</text><rect fill="#FEFECE" filter="url(#f6wu6d3hgoe99)" height="34.1328" rx="12.5" ry="12.5" style="stroke:#A80036;stroke-width:1.5;" width="217" x="580" y="309.7969"/><text fill="#000000" font-family="sans-serif" font-size="12" lengthAdjust="spacing" textLength="193" x="594" y="331.3984">Fetch Current Weather from Repo</text><rect fill="#FEFECE" filter="url(#f6wu6d3hgoe99)" height="34.1328" rx="12.5" ry="12.5" style="stroke:#A80036;stroke-width:1.5;" width="263" x="557" y="363.9297"/><text fill="#000000" font-family="sans-serif" font-size="12" lengthAdjust="spacing" textLength="239" x="571" y="385.5313">onResponse Update ViewModel and View</text><polygon fill="#FEFECE" filter="url(#f6wu6d3hgoe99)" points="415.5,472.1953,415.5,472.1953,427.5,484.1953,415.5,496.1953,415.5,496.1953,403.5,484.1953,415.5,472.1953" style="stroke:#A80036;stroke-width:1.5;"/><ellipse cx="415.5" cy="527.1953" fill="none" filter="url(#f6wu6d3hgoe99)" rx="11" ry="11" style="stroke:#000000;stroke-width:1.0;"/><ellipse cx="415.5" cy="527.1953" fill="#000000" rx="6" ry="6" style="stroke:#000000;stroke-width:1.0;"/><line style="stroke:#A80036;stroke-width:1.5;" x1="415.5" x2="415.5" y1="67.4883" y2="87.4883"/><polygon fill="#A80036" points="411.5,77.4883,415.5,87.4883,419.5,77.4883,415.5,81.4883" style="stroke:#A80036;stroke-width:1.0;"/><line style="stroke:#A80036;stroke-width:1.5;" x1="415.5" x2="415.5" y1="121.6211" y2="141.6211"/><polygon fill="#A80036" points="411.5,131.6211,415.5,141.6211,419.5,131.6211,415.5,135.6211" style="stroke:#A80036;stroke-width:1.0;"/><line style="stroke:#A80036;stroke-width:1.5;" x1="415.5" x2="415.5" y1="175.7539" y2="195.7539"/><polygon fill="#A80036" points="411.5,185.7539,415.5,195.7539,419.5,185.7539,415.5,189.7539" style="stroke:#A80036;stroke-width:1.0;"/><line style="stroke:#A80036;stroke-width:1.5;" x1="142.5" x2="142.5" y1="343.9297" y2="363.9297"/><polygon fill="#A80036" points="138.5,353.9297,142.5,363.9297,146.5,353.9297,142.5,357.9297" style="stroke:#A80036;stroke-width:1.0;"/><line style="stroke:#A80036;stroke-width:1.5;" x1="142.5" x2="142.5" y1="398.0625" y2="418.0625"/><polygon fill="#A80036" points="138.5,408.0625,142.5,418.0625,146.5,408.0625,142.5,412.0625" style="stroke:#A80036;stroke-width:1.0;"/><line style="stroke:#A80036;stroke-width:1.5;" x1="415.5" x2="415.5" y1="343.9297" y2="363.9297"/><polygon fill="#A80036" points="411.5,353.9297,415.5,363.9297,419.5,353.9297,415.5,357.9297" style="stroke:#A80036;stroke-width:1.0;"/><line style="stroke:#A80036;stroke-width:1.5;" x1="415.5" x2="415.5" y1="398.0625" y2="418.0625"/><polygon fill="#A80036" points="411.5,408.0625,415.5,418.0625,419.5,408.0625,415.5,412.0625" style="stroke:#A80036;stroke-width:1.0;"/><line style="stroke:#A80036;stroke-width:1.5;" x1="688.5" x2="688.5" y1="343.9297" y2="363.9297"/><polygon fill="#A80036" points="684.5,353.9297,688.5,363.9297,692.5,353.9297,688.5,357.9297" style="stroke:#A80036;stroke-width:1.0;"/><line style="stroke:#A80036;stroke-width:1.5;" x1="332.5" x2="142.5" y1="261.8867" y2="261.8867"/><line style="stroke:#A80036;stroke-width:1.5;" x1="142.5" x2="142.5" y1="261.8867" y2="309.7969"/><polygon fill="#A80036" points="138.5,299.7969,142.5,309.7969,146.5,299.7969,142.5,303.7969" style="stroke:#A80036;stroke-width:1.0;"/><text fill="#000000" font-family="sans-serif" font-size="11" lengthAdjust="spacing" textLength="36" x="142.5" y="289.999">denied</text><line style="stroke:#A80036;stroke-width:1.5;" x1="498.5" x2="688.5" y1="261.8867" y2="261.8867"/><line style="stroke:#A80036;stroke-width:1.5;" x1="688.5" x2="688.5" y1="261.8867" y2="309.7969"/><polygon fill="#A80036" points="684.5,299.7969,688.5,309.7969,692.5,299.7969,688.5,303.7969" style="stroke:#A80036;stroke-width:1.0;"/><text fill="#000000" font-family="sans-serif" font-size="11" lengthAdjust="spacing" textLength="58" x="688.5" y="289.999">authorised</text><line style="stroke:#A80036;stroke-width:1.5;" x1="415.5" x2="415.5" y1="273.8867" y2="285.8568"/><line style="stroke:#A80036;stroke-width:1.5;" x1="415.5" x2="415.5" y1="285.8568" y2="309.7969"/><polygon fill="#A80036" points="411.5,299.7969,415.5,309.7969,419.5,299.7969,415.5,303.7969" style="stroke:#A80036;stroke-width:1.0;"/><text fill="#000000" font-family="sans-serif" font-size="11" lengthAdjust="spacing" textLength="49" x="415.5" y="290.999">unknown</text><line style="stroke:#A80036;stroke-width:1.5;" x1="142.5" x2="142.5" y1="452.1953" y2="484.1953"/><line style="stroke:#A80036;stroke-width:1.5;" x1="142.5" x2="403.5" y1="484.1953" y2="484.1953"/><polygon fill="#A80036" points="393.5,480.1953,403.5,484.1953,393.5,488.1953,397.5,484.1953" style="stroke:#A80036;stroke-width:1.0;"/><line style="stroke:#A80036;stroke-width:1.5;" x1="688.5" x2="688.5" y1="398.0625" y2="484.1953"/><line style="stroke:#A80036;stroke-width:1.5;" x1="688.5" x2="427.5" y1="484.1953" y2="484.1953"/><polygon fill="#A80036" points="437.5,480.1953,427.5,484.1953,437.5,488.1953,433.5,484.1953" style="stroke:#A80036;stroke-width:1.0;"/><line style="stroke:#A80036;stroke-width:1.5;" x1="415.5" x2="415.5" y1="452.1953" y2="457.1953"/><line style="stroke:#A80036;stroke-width:1.5;" x1="415.5" x2="415.5" y1="457.1953" y2="472.1953"/><polygon fill="#A80036" points="411.5,462.1953,415.5,472.1953,419.5,462.1953,415.5,466.1953" style="stroke:#A80036;stroke-width:1.0;"/><line style="stroke:#A80036;stroke-width:1.5;" x1="415.5" x2="415.5" y1="229.8867" y2="249.8867"/><polygon fill="#A80036" points="411.5,239.8867,415.5,249.8867,419.5,239.8867,415.5,243.8867" style="stroke:#A80036;stroke-width:1.0;"/><line style="stroke:#A80036;stroke-width:1.5;" x1="415.5" x2="415.5" y1="496.1953" y2="516.1953"/><polygon fill="#A80036" points="411.5,506.1953,415.5,516.1953,419.5,506.1953,415.5,510.1953" style="stroke:#A80036;stroke-width:1.0;"/><!--SRC=[jP5DRi9038NtSugt0wv0LhHLsmL85VrRZp8ciGBsQEmqr- -4KXQisvrjFJz_jftzI5WySzTZIrzqn0CPTx88Dh2Wg54mZyL3M6EJCxPnbBQdrDJyYHptOoaaZa-AtbF1tUYkWhUORnLRRQEpIXDiOczxBAjFErphUA5oOhCQha8RZR1C94nf5R36QwyJHgiJSj5JTaH9wDGLHkuidJMpx95cvrkeGst1dhAUDIfxignI9xpd59tmmJJjDDNjPzSvQou4emoYavmHDZRWmCKSpYV2yPSxNxd_1I6EtcjXknpYx-n9qiydweSrVmC0]--></g></svg>